<svg width="45" height="45" viewBox="0 0 45 45" fill="none" xmlns="http://www.w3.org/2000/svg">
<path d="M22.5 4.21875C18.8843 4.21875 15.3498 5.29093 12.3435 7.2997C9.33714 9.30847 6.99398 12.1636 5.61032 15.5041C4.22666 18.8445 3.86463 22.5203 4.57001 26.0665C5.2754 29.6127 7.01652 32.8701 9.5732 35.4268C12.1299 37.9835 15.3873 39.7246 18.9335 40.43C22.4797 41.1354 26.1555 40.7733 29.4959 39.3897C32.8364 38.006 35.6915 35.6629 37.7003 32.6565C39.7091 29.6502 40.7812 26.1157 40.7812 22.5C40.7761 17.6531 38.8484 13.0061 35.4211 9.57886C31.9938 6.15157 27.3469 4.22387 22.5 4.21875ZM22.5 37.9688C19.4406 37.9688 16.4498 37.0615 13.906 35.3618C11.3622 33.6621 9.37952 31.2462 8.20873 28.4196C7.03794 25.5931 6.73161 22.4828 7.32847 19.4822C7.92534 16.4816 9.39859 13.7253 11.5619 11.5619C13.7253 9.3986 16.4815 7.92534 19.4822 7.32848C22.4828 6.73161 25.5931 7.03795 28.4196 8.20874C31.2462 9.37953 33.6621 11.3622 35.3618 13.906C37.0615 16.4498 37.9687 19.4406 37.9687 22.5C37.9641 26.6011 36.3329 30.533 33.4329 33.4329C30.533 36.3329 26.6011 37.9641 22.5 37.9688ZM30.5262 21.5051C30.6569 21.6357 30.7606 21.7908 30.8314 21.9615C30.9022 22.1322 30.9386 22.3152 30.9386 22.5C30.9386 22.6848 30.9022 22.8678 30.8314 23.0385C30.7606 23.2092 30.6569 23.3643 30.5262 23.4949L24.9012 29.1199C24.6373 29.3838 24.2794 29.532 23.9062 29.532C23.5331 29.532 23.1752 29.3838 22.9113 29.1199C22.6475 28.8561 22.4992 28.4982 22.4992 28.125C22.4992 27.7518 22.6475 27.3939 22.9113 27.1301L26.1369 23.9062H15.4687C15.0958 23.9062 14.7381 23.7581 14.4744 23.4944C14.2107 23.2306 14.0625 22.873 14.0625 22.5C14.0625 22.127 14.2107 21.7694 14.4744 21.5056C14.7381 21.2419 15.0958 21.0938 15.4687 21.0938H26.1369L22.9113 17.8699C22.6475 17.6061 22.4992 17.2482 22.4992 16.875C22.4992 16.5018 22.6475 16.1439 22.9113 15.8801C23.1752 15.6162 23.5331 15.468 23.9062 15.468C24.2794 15.468 24.6373 15.6162 24.9012 15.8801L30.5262 21.5051Z" fill="black"/>
</svg>
