<svg width="45" height="45" viewBox="0 0 45 45" fill="none" xmlns="http://www.w3.org/2000/svg">
<path d="M22.5 4.21875C18.8843 4.21875 15.3498 5.29093 12.3435 7.2997C9.33715 9.30847 6.994 12.1636 5.61034 15.5041C4.22667 18.8445 3.86464 22.5203 4.57003 26.0665C5.27541 29.6127 7.01653 32.8701 9.57321 35.4268C12.1299 37.9835 15.3873 39.7246 18.9335 40.43C22.4797 41.1354 26.1555 40.7733 29.4959 39.3897C32.8364 38.006 35.6915 35.6629 37.7003 32.6565C39.7091 29.6502 40.7813 26.1157 40.7813 22.5C40.7761 17.6531 38.8484 13.0061 35.4212 9.57886C31.9939 6.15157 27.3469 4.22387 22.5 4.21875ZM22.5 37.9688C19.4406 37.9688 16.4499 37.0615 13.906 35.3618C11.3622 33.6621 9.37954 31.2462 8.20875 28.4196C7.03795 25.5931 6.73162 22.4828 7.32849 19.4822C7.92535 16.4816 9.39861 13.7253 11.562 11.5619C13.7253 9.3986 16.4816 7.92534 19.4822 7.32848C22.4828 6.73161 25.5931 7.03795 28.4196 8.20874C31.2462 9.37953 33.6621 11.3622 35.3618 13.906C37.0615 16.4498 37.9688 19.4406 37.9688 22.5C37.9641 26.6011 36.3329 30.533 33.4329 33.4329C30.533 36.3329 26.6011 37.9641 22.5 37.9688ZM30.9375 22.5C30.9375 22.873 30.7894 23.2306 30.5256 23.4944C30.2619 23.7581 29.9042 23.9062 29.5313 23.9062H18.8631L22.0887 27.1301C22.2193 27.2607 22.323 27.4158 22.3937 27.5866C22.4644 27.7573 22.5008 27.9402 22.5008 28.125C22.5008 28.3098 22.4644 28.4927 22.3937 28.6634C22.323 28.8342 22.2193 28.9893 22.0887 29.1199C21.958 29.2506 21.8029 29.3542 21.6322 29.4249C21.4615 29.4956 21.2785 29.532 21.0938 29.532C20.909 29.532 20.726 29.4956 20.5553 29.4249C20.3846 29.3542 20.2295 29.2506 20.0988 29.1199L14.4738 23.4949C14.3431 23.3643 14.2394 23.2092 14.1686 23.0385C14.0978 22.8678 14.0614 22.6848 14.0614 22.5C14.0614 22.3152 14.0978 22.1322 14.1686 21.9615C14.2394 21.7908 14.3431 21.6357 14.4738 21.5051L20.0988 15.8801C20.3627 15.6162 20.7206 15.468 21.0938 15.468C21.4669 15.468 21.8248 15.6162 22.0887 15.8801C22.3526 16.1439 22.5008 16.5018 22.5008 16.875C22.5008 17.2482 22.3526 17.6061 22.0887 17.8699L18.8631 21.0938H29.5313C29.9042 21.0938 30.2619 21.2419 30.5256 21.5056C30.7894 21.7694 30.9375 22.127 30.9375 22.5Z" fill="black"/>
</svg>
