<svg width="60" height="59" viewBox="0 0 60 59" fill="none" xmlns="http://www.w3.org/2000/svg">
<path d="M51.8453 10.9846H7.90702C7.42148 10.9846 6.95581 11.1775 6.61248 11.5208C6.26915 11.8642 6.07626 12.3298 6.07626 12.8154V43.9383C6.07626 44.9094 6.46203 45.8407 7.1487 46.5274C7.83537 47.2141 8.76669 47.5998 9.73778 47.5998H50.0145C50.9856 47.5998 51.9169 47.2141 52.6036 46.5274C53.2903 45.8407 53.676 44.9094 53.676 43.9383V12.8154C53.676 12.3298 53.4832 11.8642 53.1398 11.5208C52.7965 11.1775 52.3308 10.9846 51.8453 10.9846ZM29.8762 30.4708L12.6144 14.6461H47.1379L29.8762 30.4708ZM23.1733 29.2922L9.73778 41.6064V16.9781L23.1733 29.2922ZM25.8828 31.7752L28.6289 34.3039C28.9667 34.614 29.4085 34.786 29.867 34.786C30.3255 34.786 30.7673 34.614 31.105 34.3039L33.8512 31.7752L47.1242 43.9383H12.6144L25.8828 31.7752ZM36.579 29.2922L50.0145 16.9758V41.6087L36.579 29.2922Z" fill="black"/>
</svg>
