<svg width="59" height="59" viewBox="0 0 59 59" fill="none" xmlns="http://www.w3.org/2000/svg">
<path d="M42.9272 33.1458L35.6041 29.4843C35.3159 29.3407 34.9948 29.2756 34.6734 29.2957C34.3519 29.3158 34.0415 29.4203 33.7734 29.5987L30.4116 31.8414C28.8684 30.9931 27.5985 29.7231 26.7501 28.1799L28.9928 24.8182C29.1712 24.55 29.2757 24.2396 29.2958 23.9181C29.3159 23.5967 29.2509 23.2756 29.1072 22.9874L25.4457 15.6644C25.2939 15.3579 25.0593 15.1 24.7685 14.92C24.4777 14.74 24.1423 14.6451 23.8003 14.646C21.3725 14.646 19.0442 15.6104 17.3276 17.3271C15.6109 19.0437 14.6465 21.3721 14.6465 23.7998C14.6525 29.139 16.7762 34.2577 20.5516 38.0331C24.3269 41.8084 29.4457 43.9321 34.7849 43.9382C35.9869 43.9382 37.1773 43.7014 38.2879 43.2414C39.3985 42.7813 40.4076 42.1071 41.2576 41.2571C42.1076 40.4071 42.7818 39.398 43.2419 38.2874C43.7019 37.1768 43.9387 35.9865 43.9387 34.7844C43.9389 34.4442 43.8444 34.1108 43.6657 33.8214C43.4871 33.5319 43.2313 33.298 42.9272 33.1458ZM34.7849 40.2766C30.4164 40.2718 26.2283 38.5343 23.1393 35.4453C20.0504 32.3564 18.3129 28.1682 18.308 23.7998C18.3077 22.53 18.7473 21.2993 19.5522 20.3171C20.357 19.3349 21.4773 18.662 22.7224 18.4128L25.3496 23.6762L23.1138 27.0036C22.9467 27.2542 22.844 27.5422 22.8149 27.842C22.7857 28.1418 22.831 28.4441 22.9467 28.7222C24.2566 31.8354 26.7332 34.3121 29.8464 35.6219C30.1253 35.7427 30.43 35.7922 30.7328 35.7658C31.0356 35.7395 31.3272 35.6381 31.581 35.4709L34.9244 33.2419L40.1879 35.8691C39.9368 37.1156 39.2609 38.2364 38.2755 39.0402C37.2902 39.844 36.0565 40.281 34.7849 40.2766ZM29.2926 5.49219C25.1836 5.49129 21.1444 6.55423 17.568 8.57754C13.9917 10.6009 11.0002 13.5156 8.88456 17.0381C6.76894 20.5606 5.60134 24.5708 5.4954 28.6784C5.38946 32.7861 6.34879 36.8512 8.28002 40.478L5.68262 48.2702C5.46747 48.9153 5.43625 49.6077 5.59245 50.2696C5.74866 50.9314 6.08611 51.5368 6.567 52.0176C7.04789 52.4985 7.6532 52.836 8.31509 52.9922C8.97698 53.1484 9.6693 53.1172 10.3144 52.902L18.1066 50.3046C21.2985 52.0023 24.8352 52.9505 28.4482 53.0773C32.0612 53.2041 35.6557 52.5061 38.9587 51.0363C42.2617 49.5665 45.1864 47.3636 47.5109 44.5947C49.8354 41.8258 51.4986 38.5637 52.3742 35.0561C53.2497 31.5484 53.3147 27.8874 52.5641 24.3509C51.8136 20.8144 50.2672 17.4954 48.0424 14.6458C45.8176 11.7962 42.9728 9.49084 39.724 7.9048C36.4752 6.31875 32.9078 5.49367 29.2926 5.49219ZM29.2926 49.4304C25.7523 49.4328 22.2741 48.5005 19.2097 46.7278C18.9853 46.5977 18.7358 46.5167 18.4778 46.4903C18.2198 46.4638 17.9591 46.4925 17.713 46.5745L9.1542 49.4304L12.0079 40.8716C12.0902 40.6257 12.1192 40.3651 12.0932 40.1071C12.0672 39.8491 11.9866 39.5995 11.8569 39.375C9.637 35.5371 8.74573 31.0738 9.32133 26.6777C9.89692 22.2815 11.9072 18.1982 15.0403 15.0611C18.1734 11.924 22.2542 9.9086 26.6496 9.32745C31.0451 8.74631 35.5094 9.63194 39.3502 11.847C43.1909 14.062 46.1933 17.4825 47.8916 21.5781C49.59 25.6736 49.8893 30.2151 48.7431 34.498C47.597 38.781 45.0694 42.566 41.5526 45.2659C38.0358 47.9659 33.7262 49.4297 29.2926 49.4304Z" fill="black"/>
</svg>
