<svg width="59" height="59" viewBox="0 0 59 59" fill="none" xmlns="http://www.w3.org/2000/svg">
<path d="M29.2922 18.3075C27.1196 18.3075 24.9959 18.9517 23.1895 20.1587C21.3831 21.3657 19.9751 23.0813 19.1438 25.0885C18.3124 27.0956 18.0948 29.3043 18.5187 31.4351C18.9425 33.5659 19.9887 35.5231 21.5249 37.0593C23.0611 38.5956 25.0184 39.6417 27.1492 40.0656C29.28 40.4894 31.4886 40.2719 33.4958 39.4405C35.5029 38.6091 37.2185 37.2012 38.4255 35.3948C39.6325 33.5884 40.2767 31.4646 40.2767 29.2921C40.2737 26.3797 39.1154 23.5875 37.0561 21.5282C34.9967 19.4688 32.2045 18.3105 29.2922 18.3075ZM29.2922 36.6151C27.8438 36.6151 26.428 36.1856 25.2237 35.381C24.0194 34.5763 23.0808 33.4326 22.5266 32.0945C21.9723 30.7564 21.8273 29.284 22.1098 27.8634C22.3924 26.4429 23.0898 25.138 24.114 24.1139C25.1381 23.0898 26.443 22.3923 27.8635 22.1097C29.284 21.8272 30.7565 21.9722 32.0946 22.5265C33.4327 23.0807 34.5764 24.0193 35.3811 25.2236C36.1857 26.4279 36.6152 27.8437 36.6152 29.2921C36.6152 31.2343 35.8437 33.0969 34.4703 34.4702C33.097 35.8436 31.2344 36.6151 29.2922 36.6151ZM40.2767 5.49219H18.3076C14.9099 5.49582 11.6524 6.84717 9.24981 9.24972C6.84726 11.6523 5.49591 14.9098 5.49228 18.3075V40.2766C5.49591 43.6744 6.84726 46.9319 9.24981 49.3344C11.6524 51.737 14.9099 53.0883 18.3076 53.092H40.2767C43.6744 53.0883 46.932 51.737 49.3345 49.3344C51.7371 46.9319 53.0884 43.6744 53.0921 40.2766V18.3075C53.0884 14.9098 51.7371 11.6523 49.3345 9.24972C46.932 6.84717 43.6744 5.49582 40.2767 5.49219ZM49.4305 40.2766C49.4305 42.7044 48.4661 45.0327 46.7494 46.7494C45.0328 48.466 42.7045 49.4304 40.2767 49.4304H18.3076C15.8799 49.4304 13.5516 48.466 11.8349 46.7494C10.1182 45.0327 9.1538 42.7044 9.1538 40.2766V18.3075C9.1538 15.8798 10.1182 13.5515 11.8349 11.8348C13.5516 10.1181 15.8799 9.15371 18.3076 9.15371H40.2767C42.7045 9.15371 45.0328 10.1181 46.7494 11.8348C48.4661 13.5515 49.4305 15.8798 49.4305 18.3075V40.2766ZM43.9382 17.3921C43.9382 17.9353 43.7772 18.4662 43.4754 18.9178C43.1737 19.3694 42.7448 19.7214 42.243 19.9292C41.7412 20.1371 41.1891 20.1915 40.6564 20.0855C40.1237 19.9795 39.6343 19.718 39.2503 19.3339C38.8662 18.9499 38.6047 18.4606 38.4987 17.9279C38.3928 17.3952 38.4472 16.843 38.655 16.3412C38.8629 15.8394 39.2148 15.4105 39.6664 15.1088C40.118 14.807 40.649 14.646 41.1921 14.646C41.9204 14.646 42.6189 14.9353 43.1339 15.4503C43.6489 15.9653 43.9382 16.6638 43.9382 17.3921Z" fill="black"/>
</svg>
